<svg xmlns="http://www.w3.org/2000/svg" version="1.1" xmlns:xlink="http://www.w3.org/1999/xlink" width="512" height="512" x="0" y="0" viewBox="0 0 512 512" style="enable-background:new 0 0 512 512" xml:space="preserve" class=""><g><path fill="#c9def7" d="m323.212 35.112 153.665 153.665c10.872 10.872 10.872 28.498 0 39.37L228.135 476.888c-10.872 10.872-28.498 10.872-39.37 0L35.1 323.223c-10.872-10.872-10.872-28.498 0-39.37L283.842 35.112c10.872-10.872 28.498-10.872 39.37 0z" opacity="1" data-original="#c9def7" class=""></path><path fill="#ffffff" d="M62.883 351.013 350.951 62.945l49.018 49.018L111.901 400.03zM372.12 224.502l-13.985-13.986a8.52 8.52 0 0 1 0-12.049l31.716-31.716a8.52 8.52 0 0 1 12.049 0l13.985 13.986a8.52 8.52 0 0 1 0 12.049l-31.716 31.716a8.52 8.52 0 0 1-12.049 0z" opacity="1" data-original="#ffffff"></path><g fill="#0c76f0"><path d="M326.451 31.874c-12.667-12.667-33.18-12.678-45.849 0L31.859 280.613c-12.638 12.642-12.638 33.211 0 45.849l153.668 153.664c12.663 12.672 33.18 12.673 45.844 0l248.743-248.738c12.672-12.672 12.673-33.175 0-45.849L326.451 31.874zm67.115 80.071L111.934 393.577l-42.551-42.548L351.019 69.398zM38.337 287.091 287.08 38.352c9.091-9.091 23.803-9.09 32.893 0l24.568 24.568L62.905 344.552l-24.569-24.568c-9.067-9.068-9.067-23.821.001-32.893zm435.3-62.182L224.894 473.648c-9.092 9.092-23.798 9.091-32.889 0l-73.594-73.592 281.633-281.633 73.593 73.593c9.068 9.068 9.068 23.826 0 32.893z" fill="#1d63ed" opacity="1" data-original="#0c76f0" class=""></path><path d="M238.596 400.328 198.5 440.424a4.58 4.58 0 1 0 6.478 6.478l40.096-40.096a4.58 4.58 0 1 0-6.478-6.478zM305.868 333.055l-40.096 40.096a4.58 4.58 0 1 0 6.478 6.478l40.096-40.096a4.58 4.58 0 1 0-6.478-6.478zM373.14 265.783l-40.096 40.096a4.58 4.58 0 1 0 6.478 6.478l40.096-40.096a4.58 4.58 0 1 0-6.478-6.478zM440.408 198.511l-40.096 40.096a4.58 4.58 0 1 0 6.478 6.478l40.096-40.096a4.58 4.58 0 1 0-6.478-6.478zM207.313 362.567a4.58 4.58 0 0 0-6.478 0l-40.096 40.096a4.58 4.58 0 1 0 6.478 6.478l40.096-40.096a4.579 4.579 0 0 0 0-6.478zM419.123 177.499l-13.984-13.993c-5.109-5.1-13.42-5.095-18.529.004l-31.721 31.717c-5.1 5.109-5.1 13.42.004 18.529l13.989 13.984c5.141 5.141 13.426 5.099 18.525 0l31.717-31.717c5.101-5.101 5.138-13.385-.001-18.524zm-6.477 12.047-31.717 31.717a3.937 3.937 0 0 1-5.569 0l-13.984-13.984a3.945 3.945 0 0 1-.004-5.574l31.717-31.712a3.946 3.946 0 0 1 5.574-.004l13.984 13.989a3.945 3.945 0 0 1-.001 5.568z" fill="#1d63ed" opacity="1" data-original="#0c76f0" class=""></path></g></g></svg>